<?xml version="1.0" encoding="UTF-8"?>
<svg id="Layer_2" data-name="Layer 2" xmlns="http://www.w3.org/2000/svg" viewBox="0 0 62.31 28.37">
  <defs>
    <style>
      .cls-1 {
        fill: #fff;
        stroke: #df61a4;
        stroke-miterlimit: 10;
        stroke-width: 2px;
      }
    </style>
  </defs>
  <g id="Layer_8" data-name="Layer 8">
    <path class="cls-1" d="m61.31,9.79c0-4.85-3.94-8.79-8.79-8.79-3.31,0-6.19,1.83-7.69,4.53h-27.36c-1.5-2.7-4.38-4.53-7.69-4.53C4.94,1,1,4.94,1,9.79c0,1.6.44,3.1,1.19,4.39-.75,1.29-1.19,2.79-1.19,4.39,0,4.85,3.94,8.79,8.79,8.79,3.31,0,6.19-1.83,7.69-4.53h27.36c1.5,2.7,4.38,4.53,7.69,4.53,4.85,0,8.79-3.94,8.79-8.79,0-1.6-.44-3.1-1.19-4.39.75-1.29,1.19-2.79,1.19-4.39Z"/>
  </g>
</svg>